<?xml version="1.0" encoding="UTF-8"?>
<svg xmlns="http://www.w3.org/2000/svg" xmlns:xlink="http://www.w3.org/1999/xlink" xmlns:svgjs="http://svgjs.com/svgjs" version="1.1" width="512" height="512" x="0" y="0" viewBox="0 0 512 512" style="enable-background:new 0 0 512 512" xml:space="preserve" class=""><g><linearGradient xmlns="http://www.w3.org/2000/svg" id="a" gradientUnits="userSpaceOnUse" x1="0" x2="512" y1="256" y2="256"><stop stop-opacity="1" stop-color="#7b65cd" offset="0"/><stop stop-opacity="1" stop-color="#caa1f3" offset="1"/></linearGradient><path xmlns="http://www.w3.org/2000/svg" d="m512 256c0 141.386719-114.613281 256-256 256s-256-114.613281-256-256 114.613281-256 256-256 256 114.613281 256 256zm0 0" fill="url(#a)" data-original="url(#a)" style="" class=""/><g xmlns="http://www.w3.org/2000/svg" fill="#fff"><path d="m429.457031 340.898438v-30h-25.582031c-1.300781-4.804688-3.214844-9.359376-5.644531-13.578126l18.101562-18.105468-21.210937-21.210938-18.105469 18.101563c-4.359375-2.511719-9.070313-4.476563-14.046875-5.78125v-25.207031h-30v25.476562c-4.632812 1.296875-9.03125 3.160156-13.113281 5.511719l-18.101563-18.101563-21.214844 21.210938 18.105469 18.105468c-2.433593 4.21875-4.347656 8.773438-5.648437 13.578126h-25.808594v30h25.808594c1.304687 4.804687 3.214844 9.359374 5.648437 13.582031l-18.105469 18.105469 21.214844 21.210937 18.101563-18.105469c4.085937 2.355469 8.480469 4.21875 13.113281 5.515625v25.476563h30v-25.210938c4.980469-1.300781 9.6875-3.269531 14.046875-5.777344l18.105469 18.101563 21.214844-21.210937-18.105469-18.105469c2.429687-4.21875 4.34375-8.773438 5.648437-13.578125h25.578125zm-96.78125-37.4375c4.460938-3.144532 9.898438-5 15.761719-5 15.128906 0 27.441406 12.308593 27.441406 27.4375 0 15.132812-12.3125 27.441406-27.441406 27.441406-15.132812 0-27.441406-12.3125-27.441406-27.441406 0-5.863282 1.855468-11.300782 5-15.761719zm0 0" fill="#ffffff" data-original="#ffffff" style=""/><path d="m213.585938 297.320312 18.101562-18.105468-21.210938-21.210938-18.105468 18.101563c-4.359375-2.511719-9.066406-4.476563-14.046875-5.78125v-25.207031h-30v25.476562c-4.632813 1.296875-9.027344 3.160156-13.113281 5.511719l-18.105469-18.101563-21.210938 21.210938 18.105469 18.105468c-2.433594 4.21875-4.347656 8.773438-5.648438 13.578126h-25.808593v30h25.808593c1.304688 4.804687 3.214844 9.359374 5.648438 13.582031l-18.105469 18.101562 21.214844 21.214844 18.105469-18.105469c4.082031 2.355469 8.476562 4.21875 13.109375 5.515625v25.476563h30v-25.210938c4.980469-1.300781 9.691406-3.269531 14.046875-5.777344l18.105468 18.101563 21.214844-21.210937-18.105468-18.105469c2.433593-4.21875 4.34375-8.773438 5.648437-13.578125h25.582031v-30h-25.582031c-1.304687-4.808594-3.214844-9.363282-5.648437-13.582032zm-65.554688 6.136719c4.464844-3.144531 9.898438-4.996093 15.761719-4.996093 15.128906 0 27.4375 12.308593 27.4375 27.4375 0 15.132812-12.308594 27.441406-27.4375 27.441406-15.132813 0-27.441407-12.3125-27.441407-27.441406 0-5.863282 1.855469-11.296876 5-15.757813zm0 0" fill="#ffffff" data-original="#ffffff" style=""/><path d="m205.984375 194.679688-18.101563 18.105468 21.214844 21.210938 18.101563-18.101563c4.082031 2.351563 8.480469 4.214844 13.113281 5.511719v25.476562h30v-25.210937c4.976562-1.300781 9.6875-3.269531 14.046875-5.777344l18.105469 18.101563 21.210937-21.210938-18.105469-18.105468c2.433594-4.21875 4.347657-8.773438 5.648438-13.578126h25.582031v-30h-25.582031c-1.300781-4.804687-3.214844-9.359374-5.648438-13.582031l18.105469-18.105469-21.210937-21.210937-18.105469 18.105469c-4.359375-2.511719-9.070313-4.480469-14.046875-5.78125v-25.210938h-30v25.476563c-4.632812 1.296875-9.03125 3.160156-13.113281 5.515625l-18.105469-18.105469-21.210938 21.210937 18.101563 18.105469c-2.429687 4.222657-4.34375 8.773438-5.644531 13.582031h-25.8125v30h25.8125c1.300781 4.804688 3.214844 9.359376 5.644531 13.578126zm34.027344-51.015626c4.464843-3.148437 9.902343-5.003906 15.765625-5.003906 15.132812 0 27.441406 12.308594 27.441406 27.441406 0 15.128907-12.308594 27.4375-27.441406 27.4375-15.128906 0-27.4375-12.308593-27.4375-27.4375 0-5.867187 1.855468-11.300781 5-15.765624zm0 0" fill="#ffffff" data-original="#ffffff" style=""/></g></g></svg>